<svg width="90" height="21" viewBox="0 0 90 21" fill="none" xmlns="http://www.w3.org/2000/svg">
<rect x="0.5" y="0.5" width="89" height="19.2941" rx="2.5" fill="#EBEBEB" stroke="#141414"/>
<path d="M29.6505 14H28.254V12.1094H23.3448V14H21.9483V10.1489C21.9483 9.58675 22.045 9.06934 22.2384 8.59668C22.4317 8.12402 22.7003 7.71761 23.044 7.37744C23.3878 7.03727 23.7942 6.7723 24.2633 6.58252C24.7324 6.39274 25.2444 6.29785 25.7994 6.29785H28.9469C29.0436 6.29785 29.1349 6.31576 29.2208 6.35156C29.3067 6.38737 29.3819 6.4375 29.4464 6.50195C29.5108 6.56641 29.561 6.6416 29.5968 6.72754C29.6326 6.81348 29.6505 6.90479 29.6505 7.00146V14ZM23.3448 10.7129H28.254V7.69434H25.7994C25.7564 7.69434 25.6651 7.7015 25.5255 7.71582C25.3894 7.72656 25.2301 7.757 25.0475 7.80713C24.8684 7.85726 24.6786 7.93424 24.4781 8.03809C24.2776 8.14193 24.0932 8.28516 23.9249 8.46777C23.7566 8.65039 23.617 8.87956 23.506 9.15527C23.3985 9.42741 23.3448 9.75863 23.3448 10.1489V10.7129ZM37.5144 14H32.4763C32.3474 14 32.2078 13.9857 32.0574 13.957C31.9106 13.9248 31.7638 13.8765 31.617 13.812C31.4737 13.7476 31.3359 13.6652 31.2034 13.5649C31.0709 13.4611 30.9527 13.3376 30.8489 13.1943C30.7486 13.0475 30.6681 12.8792 30.6072 12.6895C30.5463 12.4961 30.5159 12.2795 30.5159 12.0396V8.2583C30.5159 8.12939 30.5302 7.99154 30.5588 7.84473C30.5911 7.69434 30.6394 7.54753 30.7039 7.4043C30.7683 7.25749 30.8525 7.11784 30.9563 6.98535C31.0601 6.85286 31.1837 6.73649 31.3269 6.63623C31.4737 6.53239 31.642 6.45003 31.8318 6.38916C32.0216 6.32829 32.2364 6.29785 32.4763 6.29785H37.5144V7.69434H32.4763C32.2937 7.69434 32.1541 7.74268 32.0574 7.83936C31.9607 7.93604 31.9124 8.07926 31.9124 8.26904V12.0396C31.9124 12.2186 31.9607 12.3582 32.0574 12.4585C32.1576 12.5552 32.2973 12.6035 32.4763 12.6035H37.5144V14ZM45.0077 14H39.9697C39.8407 14 39.7011 13.9857 39.5507 13.957C39.4039 13.9248 39.2571 13.8765 39.1103 13.812C38.967 13.7476 38.8292 13.6652 38.6967 13.5649C38.5642 13.4611 38.4461 13.3376 38.3422 13.1943C38.2419 13.0475 38.1614 12.8792 38.1005 12.6895C38.0396 12.4961 38.0092 12.2795 38.0092 12.0396V8.2583C38.0092 8.12939 38.0235 7.99154 38.0522 7.84473C38.0844 7.69434 38.1327 7.54753 38.1972 7.4043C38.2616 7.25749 38.3458 7.11784 38.4496 6.98535C38.5535 6.85286 38.677 6.73649 38.8202 6.63623C38.967 6.53239 39.1353 6.45003 39.3251 6.38916C39.5149 6.32829 39.7297 6.29785 39.9697 6.29785H45.0077V7.69434H39.9697C39.787 7.69434 39.6474 7.74268 39.5507 7.83936C39.454 7.93604 39.4057 8.07926 39.4057 8.26904V12.0396C39.4057 12.2186 39.454 12.3582 39.5507 12.4585C39.651 12.5552 39.7906 12.6035 39.9697 12.6035H45.0077V14ZM52.0015 10.8525H47.5919V9.44531H52.0015V10.8525ZM52.63 14H47.5919C47.3985 14 47.1873 13.966 46.9581 13.8979C46.7289 13.8299 46.5159 13.7189 46.3189 13.5649C46.1256 13.4074 45.9626 13.2051 45.8302 12.958C45.7012 12.7074 45.6368 12.4012 45.6368 12.0396V7.00146C45.6368 6.90479 45.6547 6.81348 45.6905 6.72754C45.7263 6.6416 45.7747 6.56641 45.8355 6.50195C45.9 6.4375 45.9752 6.38737 46.0611 6.35156C46.147 6.31576 46.2401 6.29785 46.3404 6.29785H52.63V7.69434H47.0333V12.0396C47.0333 12.2222 47.0816 12.3618 47.1783 12.4585C47.275 12.5552 47.4164 12.6035 47.6026 12.6035H52.63V14ZM60.9988 9.52051C60.9988 9.83919 60.9594 10.1239 60.8806 10.3745C60.8018 10.6252 60.6944 10.8472 60.5583 11.0405C60.4259 11.2303 60.2719 11.3932 60.0964 11.5293C59.921 11.6654 59.7366 11.7764 59.5432 11.8623C59.3534 11.9482 59.1601 12.0109 58.9631 12.0503C58.7698 12.0897 58.5872 12.1094 58.4153 12.1094H55.2571V10.7129H58.4153C58.5943 10.6986 58.7554 10.6628 58.8987 10.6055C59.0455 10.5446 59.1708 10.464 59.2747 10.3638C59.3785 10.2635 59.4591 10.1436 59.5163 10.0039C59.5736 9.86068 59.6023 9.69954 59.6023 9.52051V8.88672C59.5844 8.71126 59.5468 8.55013 59.4895 8.40332C59.4322 8.25651 59.3534 8.13118 59.2532 8.02734C59.1565 7.9235 59.0383 7.84294 58.8987 7.78564C58.759 7.72477 58.5979 7.69434 58.4153 7.69434H55.2678C55.0816 7.69434 54.9402 7.74268 54.8435 7.83936C54.7468 7.93604 54.6985 8.07568 54.6985 8.2583V14H53.302V8.2583C53.302 7.90023 53.3664 7.59587 53.4954 7.34521C53.6278 7.09456 53.7908 6.89225 53.9841 6.73828C54.1811 6.58431 54.3941 6.47331 54.6233 6.40527C54.8525 6.33366 55.0637 6.29785 55.2571 6.29785H58.4153C58.7304 6.29785 59.0133 6.33903 59.2639 6.42139C59.5146 6.50016 59.7348 6.60758 59.9246 6.74365C60.1179 6.87614 60.2808 7.03011 60.4133 7.20557C60.5494 7.38102 60.6604 7.56543 60.7463 7.75879C60.8358 7.94857 60.9003 8.14193 60.9397 8.33887C60.9791 8.53223 60.9988 8.71484 60.9988 8.88672V9.52051ZM68.4975 7.69434H65.4198V14H64.0233V7.69434H60.9403V6.29785H68.4975V7.69434Z" fill="#141414"/>
</svg>
