<svg width="90" height="21" viewBox="0 0 90 21" fill="none" xmlns="http://www.w3.org/2000/svg">
<rect width="90" height="20.2941" rx="3" fill="#141414"/>
<path d="M32.0244 9.35156C32.0244 9.64128 31.9886 9.90007 31.917 10.1279C31.8454 10.3558 31.7477 10.5576 31.624 10.7334C31.5036 10.9059 31.3636 11.054 31.2041 11.1777C31.0446 11.3014 30.877 11.404 30.7012 11.4854C30.5286 11.5635 30.3529 11.6204 30.1738 11.6562C29.998 11.6921 29.832 11.71 29.6758 11.71L32.3271 14H30.3643L27.7178 11.71H26.8047V10.4404H29.6758C29.8353 10.4274 29.9801 10.3949 30.1104 10.3428C30.2438 10.2874 30.3577 10.2142 30.4521 10.123C30.5498 10.0319 30.6247 9.92285 30.6768 9.7959C30.7288 9.66569 30.7549 9.51758 30.7549 9.35156V8.55078C30.7549 8.47917 30.7451 8.42546 30.7256 8.38965C30.7093 8.35059 30.6865 8.32292 30.6572 8.30664C30.6312 8.28711 30.6019 8.27572 30.5693 8.27246C30.54 8.26921 30.5124 8.26758 30.4863 8.26758H26.2969V14H25.0273V7.6377C25.0273 7.5498 25.0436 7.4668 25.0762 7.38867C25.1087 7.31055 25.1527 7.24219 25.208 7.18359C25.2666 7.125 25.335 7.07943 25.4131 7.04688C25.4912 7.01432 25.5758 6.99805 25.667 6.99805H30.4863C30.7695 6.99805 31.0088 7.05013 31.2041 7.1543C31.3994 7.25521 31.5573 7.38379 31.6777 7.54004C31.8014 7.69303 31.8893 7.85905 31.9414 8.03809C31.9967 8.21712 32.0244 8.38477 32.0244 8.54102V9.35156ZM38.4557 11.1387H34.4469V9.85938H38.4557V11.1387ZM39.027 14H34.4469C34.2711 14 34.079 13.9691 33.8707 13.9072C33.6624 13.8454 33.4687 13.7445 33.2896 13.6045C33.1139 13.4613 32.9658 13.2773 32.8453 13.0527C32.7281 12.8249 32.6695 12.5465 32.6695 12.2178V7.6377C32.6695 7.5498 32.6858 7.4668 32.7184 7.38867C32.7509 7.31055 32.7949 7.24219 32.8502 7.18359C32.9088 7.125 32.9771 7.07943 33.0553 7.04688C33.1334 7.01432 33.218 6.99805 33.3092 6.99805H39.027V8.26758H33.9391V12.2178C33.9391 12.3838 33.983 12.5107 34.0709 12.5986C34.1588 12.6865 34.2874 12.7305 34.4566 12.7305H39.027V14ZM45.5461 12.2178C45.5461 12.4717 45.5021 12.7077 45.4143 12.9258C45.3264 13.1439 45.2027 13.3327 45.0432 13.4922C44.8869 13.6517 44.6997 13.777 44.4816 13.8682C44.2635 13.9561 44.0259 14 43.7687 14H39.1154V12.7305H43.7687C43.925 12.7305 44.0471 12.6865 44.135 12.5986C44.2229 12.5075 44.2668 12.3805 44.2668 12.2178V6.99805H45.5461V12.2178ZM52.158 11.1387H48.1492V9.85938H52.158V11.1387ZM52.7293 14H48.1492C47.9734 14 47.7814 13.9691 47.573 13.9072C47.3647 13.8454 47.171 13.7445 46.992 13.6045C46.8162 13.4613 46.6681 13.2773 46.5477 13.0527C46.4305 12.8249 46.3719 12.5465 46.3719 12.2178V7.6377C46.3719 7.5498 46.3882 7.4668 46.4207 7.38867C46.4533 7.31055 46.4972 7.24219 46.5525 7.18359C46.6111 7.125 46.6795 7.07943 46.7576 7.04688C46.8357 7.01432 46.9204 6.99805 47.0115 6.99805H52.7293V8.26758H47.6414V12.2178C47.6414 12.3838 47.6854 12.5107 47.7732 12.5986C47.8611 12.6865 47.9897 12.7305 48.159 12.7305H52.7293V14ZM59.5805 14H55.0004C54.8832 14 54.7562 13.987 54.6195 13.9609C54.4861 13.9316 54.3526 13.8877 54.2191 13.8291C54.0889 13.7705 53.9636 13.6956 53.8432 13.6045C53.7227 13.5101 53.6153 13.3978 53.5209 13.2676C53.4298 13.1341 53.3565 12.9811 53.3012 12.8086C53.2458 12.6328 53.2182 12.4359 53.2182 12.2178V8.78027C53.2182 8.66309 53.2312 8.53776 53.2572 8.4043C53.2865 8.26758 53.3305 8.13411 53.3891 8.00391C53.4477 7.87044 53.5242 7.74349 53.6186 7.62305C53.713 7.5026 53.8253 7.39681 53.9555 7.30566C54.0889 7.21126 54.2419 7.13639 54.4145 7.08105C54.587 7.02572 54.7823 6.99805 55.0004 6.99805H59.5805V8.26758H55.0004C54.8344 8.26758 54.7074 8.31152 54.6195 8.39941C54.5316 8.4873 54.4877 8.61751 54.4877 8.79004V12.2178C54.4877 12.3805 54.5316 12.5075 54.6195 12.5986C54.7107 12.6865 54.8376 12.7305 55.0004 12.7305H59.5805V14ZM66.5098 8.26758H63.7119V14H62.4424V8.26758H59.6396V6.99805H66.5098V8.26758Z" fill="#EBEBEB"/>
</svg>
